<svg width="128" height="128" viewBox="0 0 128 128" fill="none" xmlns="http://www.w3.org/2000/svg">
<rect width="128" height="128" rx="13" fill="white"/>
<path d="M26.064 76H25.284C25.04 76 24.844 75.926 24.696 75.778C24.552 75.63 24.48 75.432 24.48 75.184V72.958C24.48 72.71 24.552 72.512 24.696 72.364C24.844 72.216 25.04 72.142 25.284 72.142H26.064C26.308 72.142 26.502 72.216 26.646 72.364C26.794 72.512 26.868 72.71 26.868 72.958V73.258C26.868 73.294 26.852 73.312 26.82 73.312H26.736C26.704 73.312 26.688 73.294 26.688 73.258V72.964C26.688 72.76 26.634 72.6 26.526 72.484C26.418 72.368 26.264 72.31 26.064 72.31H25.284C25.084 72.31 24.93 72.368 24.822 72.484C24.714 72.6 24.66 72.76 24.66 72.964V75.178C24.66 75.382 24.714 75.542 24.822 75.658C24.93 75.774 25.084 75.832 25.284 75.832H26.064C26.264 75.832 26.418 75.774 26.526 75.658C26.634 75.542 26.688 75.382 26.688 75.178V74.884C26.688 74.848 26.704 74.83 26.736 74.83H26.82C26.852 74.83 26.868 74.848 26.868 74.884V75.184C26.868 75.432 26.794 75.63 26.646 75.778C26.502 75.926 26.308 76 26.064 76ZM28.9918 76H28.4818C28.2378 76 28.0418 75.926 27.8938 75.778C27.7498 75.63 27.6778 75.432 27.6778 75.184V73.756C27.6778 73.508 27.7498 73.31 27.8938 73.162C28.0418 73.014 28.2378 72.94 28.4818 72.94H28.9918C29.2358 72.94 29.4298 73.014 29.5738 73.162C29.7218 73.31 29.7958 73.508 29.7958 73.756V75.184C29.7958 75.432 29.7218 75.63 29.5738 75.778C29.4298 75.926 29.2358 76 28.9918 76ZM28.4818 75.832H28.9918C29.1918 75.832 29.3458 75.774 29.4538 75.658C29.5618 75.542 29.6158 75.382 29.6158 75.178V73.762C29.6158 73.558 29.5618 73.398 29.4538 73.282C29.3458 73.166 29.1918 73.108 28.9918 73.108H28.4818C28.2818 73.108 28.1278 73.166 28.0198 73.282C27.9118 73.398 27.8578 73.558 27.8578 73.762V75.178C27.8578 75.382 27.9118 75.542 28.0198 75.658C28.1278 75.774 28.2818 75.832 28.4818 75.832ZM30.8288 76.918H30.7448C30.7128 76.918 30.6968 76.9 30.6968 76.864V72.994C30.6968 72.958 30.7128 72.94 30.7448 72.94H30.8288C30.8608 72.94 30.8768 72.958 30.8768 72.994V73.252H30.9008C31.0128 73.044 31.2248 72.94 31.5368 72.94H31.9808C32.2248 72.94 32.4188 73.014 32.5628 73.162C32.7108 73.31 32.7848 73.508 32.7848 73.756V75.184C32.7848 75.432 32.7108 75.63 32.5628 75.778C32.4188 75.926 32.2248 76 31.9808 76H31.5368C31.2248 76 31.0128 75.896 30.9008 75.688H30.8768V76.864C30.8768 76.9 30.8608 76.918 30.8288 76.918ZM31.5488 75.832H31.9808C32.1808 75.832 32.3348 75.774 32.4428 75.658C32.5508 75.542 32.6048 75.382 32.6048 75.178V73.762C32.6048 73.558 32.5508 73.398 32.4428 73.282C32.3348 73.166 32.1808 73.108 31.9808 73.108H31.5488C31.3488 73.108 31.1868 73.162 31.0628 73.27C30.9388 73.378 30.8768 73.532 30.8768 73.732V75.208C30.8768 75.408 30.9388 75.562 31.0628 75.67C31.1868 75.778 31.3488 75.832 31.5488 75.832ZM33.5591 76.882C33.5231 76.882 33.5051 76.866 33.5051 76.834V76.762C33.5051 76.73 33.5231 76.714 33.5591 76.714H33.7331C33.8931 76.714 34.0051 76.684 34.0691 76.624C34.1371 76.568 34.1871 76.526 34.2191 76.498C34.2511 76.474 34.2851 76.422 34.3211 76.342C34.3611 76.266 34.3871 76.216 34.3991 76.192C34.4711 76.032 34.5171 75.914 34.5371 75.838H34.4771C34.4451 75.838 34.4231 75.82 34.4111 75.784L33.3911 72.994C33.3791 72.958 33.3911 72.94 33.4271 72.94H33.5231C33.5511 72.94 33.5711 72.958 33.5831 72.994L34.5611 75.664H34.5851L35.5631 72.994C35.5751 72.958 35.5951 72.94 35.6231 72.94H35.7191C35.7551 72.94 35.7671 72.958 35.7551 72.994L34.7351 75.784C34.6111 76.14 34.5171 76.37 34.4531 76.474C34.2811 76.742 34.0411 76.878 33.7331 76.882H33.5591ZM36.5534 76H36.4694C36.4374 76 36.4214 75.982 36.4214 75.946V72.994C36.4214 72.958 36.4374 72.94 36.4694 72.94H36.5534C36.5854 72.94 36.6014 72.958 36.6014 72.994V73.264H36.6254C36.6694 73.184 36.7454 73.11 36.8534 73.042C36.9654 72.974 37.1094 72.94 37.2854 72.94H37.5254C37.5614 72.94 37.5794 72.956 37.5794 72.988V73.06C37.5794 73.092 37.5614 73.108 37.5254 73.108H37.2794C37.0754 73.108 36.9114 73.172 36.7874 73.3C36.6634 73.428 36.6014 73.602 36.6014 73.822V75.946C36.6014 75.982 36.5854 76 36.5534 76ZM38.2678 72.442V71.848C38.2678 71.812 38.2838 71.794 38.3158 71.794H38.3998C38.4318 71.794 38.4478 71.812 38.4478 71.848V72.442C38.4478 72.478 38.4318 72.496 38.3998 72.496H38.3158C38.2838 72.496 38.2678 72.478 38.2678 72.442ZM38.2678 75.946V72.994C38.2678 72.958 38.2838 72.94 38.3158 72.94H38.3998C38.4318 72.94 38.4478 72.958 38.4478 72.994V75.946C38.4478 75.982 38.4318 76 38.3998 76H38.3158C38.2838 76 38.2678 75.982 38.2678 75.946ZM40.657 75.82H40.213C39.969 75.82 39.773 75.746 39.625 75.598C39.481 75.45 39.409 75.252 39.409 75.004V73.756C39.409 73.508 39.481 73.31 39.625 73.162C39.773 73.014 39.969 72.94 40.213 72.94H41.449C41.481 72.94 41.497 72.958 41.497 72.994V75.982C41.497 76.23 41.423 76.428 41.275 76.576C41.131 76.724 40.937 76.798 40.693 76.798H39.619C39.583 76.798 39.565 76.782 39.565 76.75V76.678C39.565 76.646 39.583 76.63 39.619 76.63H40.693C40.893 76.63 41.047 76.572 41.155 76.456C41.263 76.34 41.317 76.18 41.317 75.976V75.508H41.293C41.181 75.716 40.969 75.82 40.657 75.82ZM41.317 75.028V73.156C41.317 73.124 41.299 73.108 41.263 73.108H40.213C40.013 73.108 39.859 73.166 39.751 73.282C39.643 73.398 39.589 73.558 39.589 73.762V74.998C39.589 75.202 39.643 75.362 39.751 75.478C39.859 75.594 40.013 75.652 40.213 75.652H40.645C40.845 75.652 41.007 75.598 41.131 75.49C41.255 75.382 41.317 75.228 41.317 75.028ZM42.5886 76H42.5046C42.4726 76 42.4566 75.982 42.4566 75.946V71.836C42.4566 71.8 42.4726 71.782 42.5046 71.782H42.5886C42.6206 71.782 42.6366 71.8 42.6366 71.836V73.252H42.6606C42.7726 73.044 42.9846 72.94 43.2966 72.94H43.7406C43.9846 72.94 44.1786 73.014 44.3226 73.162C44.4706 73.31 44.5446 73.508 44.5446 73.756V75.946C44.5446 75.982 44.5286 76 44.4966 76H44.4126C44.3806 76 44.3646 75.982 44.3646 75.946V73.762C44.3646 73.558 44.3106 73.398 44.2026 73.282C44.0946 73.166 43.9406 73.108 43.7406 73.108H43.3086C43.1086 73.108 42.9466 73.162 42.8226 73.27C42.6986 73.378 42.6366 73.532 42.6366 73.732V75.946C42.6366 75.982 42.6206 76 42.5886 76ZM45.6241 73.108H45.2281C45.1921 73.108 45.1741 73.092 45.1741 73.06V72.988C45.1741 72.956 45.1921 72.94 45.2281 72.94H45.6241C45.6601 72.94 45.6781 72.924 45.6781 72.892V72.424C45.6781 72.388 45.6941 72.37 45.7261 72.37H45.8101C45.8421 72.37 45.8581 72.388 45.8581 72.424V72.892C45.8581 72.924 45.8761 72.94 45.9121 72.94H46.6861C46.7221 72.94 46.7401 72.956 46.7401 72.988V73.06C46.7401 73.092 46.7221 73.108 46.6861 73.108H45.9121C45.8761 73.108 45.8581 73.124 45.8581 73.156V75.196C45.8581 75.396 45.9161 75.552 46.0321 75.664C46.1521 75.776 46.3141 75.832 46.5181 75.832H46.7461C46.7821 75.832 46.8001 75.848 46.8001 75.88V75.952C46.8001 75.984 46.7821 76 46.7461 76H46.5181C46.2701 76 46.0681 75.928 45.9121 75.784C45.7561 75.64 45.6781 75.446 45.6781 75.202V73.156C45.6781 73.124 45.6601 73.108 45.6241 73.108ZM57.9306 76H56.7006C56.4566 76 56.2606 75.926 56.1126 75.778C55.9686 75.63 55.8966 75.432 55.8966 75.184V73.756C55.8966 73.508 55.9686 73.31 56.1126 73.162C56.2606 73.014 56.4566 72.94 56.7006 72.94H57.2286C57.4726 72.94 57.6666 73.014 57.8106 73.162C57.9586 73.31 58.0326 73.508 58.0326 73.756V74.518C58.0326 74.558 58.0146 74.578 57.9786 74.578H56.1306C56.0946 74.578 56.0766 74.594 56.0766 74.626V75.178C56.0766 75.382 56.1306 75.542 56.2386 75.658C56.3466 75.774 56.5006 75.832 56.7006 75.832H57.9306C57.9666 75.832 57.9846 75.848 57.9846 75.88V75.952C57.9846 75.984 57.9666 76 57.9306 76ZM56.1306 74.41H57.7986C57.8346 74.41 57.8526 74.394 57.8526 74.362V73.762C57.8526 73.558 57.7986 73.398 57.6906 73.282C57.5826 73.166 57.4286 73.108 57.2286 73.108H56.7006C56.5006 73.108 56.3466 73.166 56.2386 73.282C56.1306 73.398 56.0766 73.558 56.0766 73.762V74.362C56.0766 74.394 56.0946 74.41 56.1306 74.41ZM60.0018 74.164H58.7178C58.6818 74.164 58.6638 74.148 58.6638 74.116V74.044C58.6638 74.012 58.6818 73.996 58.7178 73.996H60.0018C60.0378 73.996 60.0558 74.012 60.0558 74.044V74.116C60.0558 74.148 60.0378 74.164 60.0018 74.164ZM60.965 76H60.881C60.849 76 60.833 75.982 60.833 75.946V72.196C60.833 72.16 60.849 72.142 60.881 72.142H62.711C62.747 72.142 62.765 72.158 62.765 72.19V72.262C62.765 72.294 62.747 72.31 62.711 72.31H61.067C61.031 72.31 61.013 72.326 61.013 72.358V73.954C61.013 73.986 61.031 74.002 61.067 74.002H62.549C62.585 74.002 62.603 74.018 62.603 74.05V74.122C62.603 74.154 62.585 74.17 62.549 74.17H61.067C61.031 74.17 61.013 74.186 61.013 74.218V75.946C61.013 75.982 60.997 76 60.965 76ZM64.7325 76H64.2885C64.0445 76 63.8485 75.926 63.7005 75.778C63.5565 75.63 63.4845 75.432 63.4845 75.184V73.756C63.4845 73.508 63.5565 73.31 63.7005 73.162C63.8485 73.014 64.0445 72.94 64.2885 72.94H65.5245C65.5565 72.94 65.5725 72.958 65.5725 72.994V75.946C65.5725 75.982 65.5565 76 65.5245 76H65.4405C65.4085 76 65.3925 75.982 65.3925 75.946V75.688H65.3685C65.2565 75.896 65.0445 76 64.7325 76ZM65.3925 75.208V73.156C65.3925 73.124 65.3745 73.108 65.3385 73.108H64.2885C64.0885 73.108 63.9345 73.166 63.8265 73.282C63.7185 73.398 63.6645 73.558 63.6645 73.762V75.178C63.6645 75.382 63.7185 75.542 63.8265 75.658C63.9345 75.774 64.0885 75.832 64.2885 75.832H64.7205C64.9205 75.832 65.0825 75.778 65.2065 75.67C65.3305 75.562 65.3925 75.408 65.3925 75.208ZM66.6647 76H66.5807C66.5487 76 66.5327 75.982 66.5327 75.946V72.994C66.5327 72.958 66.5487 72.94 66.5807 72.94H66.6647C66.6967 72.94 66.7127 72.958 66.7127 72.994V73.252H66.7367C66.8487 73.044 67.0607 72.94 67.3727 72.94H67.6367C67.9887 72.94 68.2307 73.082 68.3627 73.366C68.4187 73.226 68.5207 73.12 68.6687 73.048C68.8207 72.976 68.9727 72.94 69.1247 72.94H69.3647C69.6087 72.94 69.8027 73.014 69.9467 73.162C70.0947 73.31 70.1687 73.508 70.1687 73.756V75.946C70.1687 75.982 70.1527 76 70.1207 76H70.0367C70.0047 76 69.9887 75.982 69.9887 75.946V73.762C69.9887 73.558 69.9347 73.398 69.8267 73.282C69.7187 73.166 69.5647 73.108 69.3647 73.108H69.1247C68.9207 73.108 68.7547 73.168 68.6267 73.288C68.5027 73.404 68.4407 73.562 68.4407 73.762V75.946C68.4407 75.982 68.4247 76 68.3927 76H68.3087C68.2767 76 68.2607 75.982 68.2607 75.946V73.762C68.2607 73.558 68.2067 73.398 68.0987 73.282C67.9907 73.166 67.8367 73.108 67.6367 73.108H67.3847C67.1847 73.108 67.0227 73.162 66.8987 73.27C66.7747 73.378 66.7127 73.532 66.7127 73.732V75.946C66.7127 75.982 66.6967 76 66.6647 76ZM73.0712 76H71.8412C71.5972 76 71.4012 75.926 71.2532 75.778C71.1092 75.63 71.0372 75.432 71.0372 75.184V73.756C71.0372 73.508 71.1092 73.31 71.2532 73.162C71.4012 73.014 71.5972 72.94 71.8412 72.94H72.3692C72.6132 72.94 72.8072 73.014 72.9512 73.162C73.0992 73.31 73.1732 73.508 73.1732 73.756V74.518C73.1732 74.558 73.1552 74.578 73.1192 74.578H71.2712C71.2352 74.578 71.2172 74.594 71.2172 74.626V75.178C71.2172 75.382 71.2712 75.542 71.3792 75.658C71.4872 75.774 71.6412 75.832 71.8412 75.832H73.0712C73.1072 75.832 73.1252 75.848 73.1252 75.88V75.952C73.1252 75.984 73.1072 76 73.0712 76ZM71.2712 74.41H72.9392C72.9752 74.41 72.9932 74.394 72.9932 74.362V73.762C72.9932 73.558 72.9392 73.398 72.8312 73.282C72.7232 73.166 72.5692 73.108 72.3692 73.108H71.8412C71.6412 73.108 71.4872 73.166 71.3792 73.282C71.2712 73.398 71.2172 73.558 71.2172 73.762V74.362C71.2172 74.394 71.2352 74.41 71.2712 74.41ZM75.2325 76H74.7885C74.5445 76 74.3485 75.926 74.2005 75.778C74.0565 75.63 73.9845 75.432 73.9845 75.184V73.756C73.9845 73.508 74.0565 73.31 74.2005 73.162C74.3485 73.014 74.5445 72.94 74.7885 72.94H75.2325C75.5445 72.94 75.7565 73.044 75.8685 73.252H75.8925V71.836C75.8925 71.8 75.9085 71.782 75.9405 71.782H76.0245C76.0565 71.782 76.0725 71.8 76.0725 71.836V75.946C76.0725 75.982 76.0565 76 76.0245 76H75.9405C75.9085 76 75.8925 75.982 75.8925 75.946V75.688H75.8685C75.7565 75.896 75.5445 76 75.2325 76ZM75.8925 75.208V73.732C75.8925 73.532 75.8305 73.378 75.7065 73.27C75.5825 73.162 75.4205 73.108 75.2205 73.108H74.7885C74.5885 73.108 74.4345 73.166 74.3265 73.282C74.2185 73.398 74.1645 73.558 74.1645 73.762V75.178C74.1645 75.382 74.2185 75.542 74.3265 75.658C74.4345 75.774 74.5885 75.832 74.7885 75.832H75.2205C75.4205 75.832 75.5825 75.778 75.7065 75.67C75.8305 75.562 75.8925 75.408 75.8925 75.208ZM77.0627 72.442V71.848C77.0627 71.812 77.0787 71.794 77.1107 71.794H77.1947C77.2267 71.794 77.2427 71.812 77.2427 71.848V72.442C77.2427 72.478 77.2267 72.496 77.1947 72.496H77.1107C77.0787 72.496 77.0627 72.478 77.0627 72.442ZM77.0627 75.946V72.994C77.0627 72.958 77.0787 72.94 77.1107 72.94H77.1947C77.2267 72.94 77.2427 72.958 77.2427 72.994V75.946C77.2427 75.982 77.2267 76 77.1947 76H77.1107C77.0787 76 77.0627 75.982 77.0627 75.946ZM79.8839 75.88V75.952C79.8839 75.984 79.8659 76 79.8299 76H78.9779C78.7339 76 78.5379 75.926 78.3899 75.778C78.2459 75.63 78.1739 75.432 78.1739 75.184V73.756C78.1739 73.508 78.2459 73.31 78.3899 73.162C78.5379 73.014 78.7339 72.94 78.9779 72.94H79.8299C79.8659 72.94 79.8839 72.956 79.8839 72.988V73.06C79.8839 73.092 79.8659 73.108 79.8299 73.108H78.9779C78.7779 73.108 78.6239 73.166 78.5159 73.282C78.4079 73.398 78.3539 73.558 78.3539 73.762V75.178C78.3539 75.382 78.4079 75.542 78.5159 75.658C78.6239 75.774 78.7779 75.832 78.9779 75.832H79.8299C79.8659 75.832 79.8839 75.848 79.8839 75.88ZM83.2014 76H82.1814C82.1454 76 82.1274 75.984 82.1274 75.952V75.88C82.1274 75.848 82.1454 75.832 82.1814 75.832H83.2014C83.6054 75.832 83.8074 75.672 83.8074 75.352V75.172C83.8074 75.024 83.7814 74.904 83.7294 74.812C83.6774 74.72 83.5834 74.65 83.4474 74.602L82.6554 74.326C82.4474 74.254 82.3014 74.166 82.2174 74.062C82.1374 73.954 82.0974 73.804 82.0974 73.612C82.0974 73.164 82.3414 72.94 82.8294 72.94H83.7954C83.8314 72.94 83.8494 72.956 83.8494 72.988V73.06C83.8494 73.092 83.8314 73.108 83.7954 73.108H82.8294C82.6454 73.108 82.5074 73.15 82.4154 73.234C82.3274 73.318 82.2834 73.414 82.2834 73.522V73.684C82.2834 73.812 82.3154 73.912 82.3794 73.984C82.4474 74.052 82.5514 74.11 82.6914 74.158L83.4774 74.44C83.6894 74.5 83.8274 74.598 83.8914 74.734C83.9554 74.87 83.9874 75.06 83.9874 75.304C83.9874 75.548 83.9234 75.726 83.7954 75.838C83.6674 75.946 83.4694 76 83.2014 76ZM84.6997 76.882C84.6637 76.882 84.6457 76.866 84.6457 76.834V76.762C84.6457 76.73 84.6637 76.714 84.6997 76.714H84.8737C85.0337 76.714 85.1457 76.684 85.2097 76.624C85.2777 76.568 85.3277 76.526 85.3597 76.498C85.3917 76.474 85.4257 76.422 85.4617 76.342C85.5017 76.266 85.5277 76.216 85.5397 76.192C85.6117 76.032 85.6577 75.914 85.6777 75.838H85.6177C85.5857 75.838 85.5637 75.82 85.5517 75.784L84.5317 72.994C84.5197 72.958 84.5317 72.94 84.5677 72.94H84.6637C84.6917 72.94 84.7117 72.958 84.7237 72.994L85.7017 75.664H85.7257L86.7037 72.994C86.7157 72.958 86.7357 72.94 86.7637 72.94H86.8597C86.8957 72.94 86.9077 72.958 86.8957 72.994L85.8757 75.784C85.7517 76.14 85.6577 76.37 85.5937 76.474C85.4217 76.742 85.1817 76.878 84.8737 76.882H84.6997ZM88.51 76H87.49C87.454 76 87.436 75.984 87.436 75.952V75.88C87.436 75.848 87.454 75.832 87.49 75.832H88.51C88.914 75.832 89.116 75.672 89.116 75.352V75.172C89.116 75.024 89.09 74.904 89.038 74.812C88.986 74.72 88.892 74.65 88.756 74.602L87.964 74.326C87.756 74.254 87.61 74.166 87.526 74.062C87.446 73.954 87.406 73.804 87.406 73.612C87.406 73.164 87.65 72.94 88.138 72.94H89.104C89.14 72.94 89.158 72.956 89.158 72.988V73.06C89.158 73.092 89.14 73.108 89.104 73.108H88.138C87.954 73.108 87.816 73.15 87.724 73.234C87.636 73.318 87.592 73.414 87.592 73.522V73.684C87.592 73.812 87.624 73.912 87.688 73.984C87.756 74.052 87.86 74.11 88 74.158L88.786 74.44C88.998 74.5 89.136 74.598 89.2 74.734C89.264 74.87 89.296 75.06 89.296 75.304C89.296 75.548 89.232 75.726 89.104 75.838C88.976 75.946 88.778 76 88.51 76ZM90.2843 73.108H89.8883C89.8523 73.108 89.8343 73.092 89.8343 73.06V72.988C89.8343 72.956 89.8523 72.94 89.8883 72.94H90.2843C90.3203 72.94 90.3383 72.924 90.3383 72.892V72.424C90.3383 72.388 90.3543 72.37 90.3863 72.37H90.4703C90.5023 72.37 90.5183 72.388 90.5183 72.424V72.892C90.5183 72.924 90.5363 72.94 90.5723 72.94H91.3463C91.3823 72.94 91.4003 72.956 91.4003 72.988V73.06C91.4003 73.092 91.3823 73.108 91.3463 73.108H90.5723C90.5363 73.108 90.5183 73.124 90.5183 73.156V75.196C90.5183 75.396 90.5763 75.552 90.6923 75.664C90.8123 75.776 90.9743 75.832 91.1783 75.832H91.4063C91.4423 75.832 91.4603 75.848 91.4603 75.88V75.952C91.4603 75.984 91.4423 76 91.4063 76H91.1783C90.9303 76 90.7283 75.928 90.5723 75.784C90.4163 75.64 90.3383 75.446 90.3383 75.202V73.156C90.3383 73.124 90.3203 73.108 90.2843 73.108ZM94.1825 76H92.9525C92.7085 76 92.5125 75.926 92.3645 75.778C92.2205 75.63 92.1485 75.432 92.1485 75.184V73.756C92.1485 73.508 92.2205 73.31 92.3645 73.162C92.5125 73.014 92.7085 72.94 92.9525 72.94H93.4805C93.7245 72.94 93.9185 73.014 94.0625 73.162C94.2105 73.31 94.2845 73.508 94.2845 73.756V74.518C94.2845 74.558 94.2665 74.578 94.2305 74.578H92.3825C92.3465 74.578 92.3285 74.594 92.3285 74.626V75.178C92.3285 75.382 92.3825 75.542 92.4905 75.658C92.5985 75.774 92.7525 75.832 92.9525 75.832H94.1825C94.2185 75.832 94.2365 75.848 94.2365 75.88V75.952C94.2365 75.984 94.2185 76 94.1825 76ZM92.3825 74.41H94.0505C94.0865 74.41 94.1045 74.394 94.1045 74.362V73.762C94.1045 73.558 94.0505 73.398 93.9425 73.282C93.8345 73.166 93.6805 73.108 93.4805 73.108H92.9525C92.7525 73.108 92.5985 73.166 92.4905 73.282C92.3825 73.398 92.3285 73.558 92.3285 73.762V74.362C92.3285 74.394 92.3465 74.41 92.3825 74.41ZM95.2878 76H95.2038C95.1718 76 95.1558 75.982 95.1558 75.946V72.994C95.1558 72.958 95.1718 72.94 95.2038 72.94H95.2878C95.3198 72.94 95.3358 72.958 95.3358 72.994V73.252H95.3598C95.4718 73.044 95.6838 72.94 95.9958 72.94H96.2598C96.6118 72.94 96.8538 73.082 96.9858 73.366C97.0418 73.226 97.1438 73.12 97.2918 73.048C97.4438 72.976 97.5958 72.94 97.7478 72.94H97.9878C98.2318 72.94 98.4258 73.014 98.5698 73.162C98.7178 73.31 98.7918 73.508 98.7918 73.756V75.946C98.7918 75.982 98.7758 76 98.7438 76H98.6598C98.6278 76 98.6118 75.982 98.6118 75.946V73.762C98.6118 73.558 98.5578 73.398 98.4498 73.282C98.3418 73.166 98.1878 73.108 97.9878 73.108H97.7478C97.5438 73.108 97.3778 73.168 97.2498 73.288C97.1258 73.404 97.0638 73.562 97.0638 73.762V75.946C97.0638 75.982 97.0478 76 97.0158 76H96.9318C96.8998 76 96.8838 75.982 96.8838 75.946V73.762C96.8838 73.558 96.8298 73.398 96.7218 73.282C96.6138 73.166 96.4598 73.108 96.2598 73.108H96.0078C95.8078 73.108 95.6458 73.162 95.5218 73.27C95.3978 73.378 95.3358 73.532 95.3358 73.732V75.946C95.3358 75.982 95.3198 76 95.2878 76ZM100.668 76H99.6482C99.6122 76 99.5942 75.984 99.5942 75.952V75.88C99.5942 75.848 99.6122 75.832 99.6482 75.832H100.668C101.072 75.832 101.274 75.672 101.274 75.352V75.172C101.274 75.024 101.248 74.904 101.196 74.812C101.144 74.72 101.05 74.65 100.914 74.602L100.122 74.326C99.9142 74.254 99.7682 74.166 99.6842 74.062C99.6042 73.954 99.5642 73.804 99.5642 73.612C99.5642 73.164 99.8082 72.94 100.296 72.94H101.262C101.298 72.94 101.316 72.956 101.316 72.988V73.06C101.316 73.092 101.298 73.108 101.262 73.108H100.296C100.112 73.108 99.9742 73.15 99.8822 73.234C99.7942 73.318 99.7502 73.414 99.7502 73.522V73.684C99.7502 73.812 99.7822 73.912 99.8462 73.984C99.9142 74.052 100.018 74.11 100.158 74.158L100.944 74.44C101.156 74.5 101.294 74.598 101.358 74.734C101.422 74.87 101.454 75.06 101.454 75.304C101.454 75.548 101.39 75.726 101.262 75.838C101.134 75.946 100.936 76 100.668 76Z" fill="black"/>
<path d="M13 55.84V53H36.78V58.16L31.56 57.44V55.84H21.22V58.58H29.72V61.42H21.22V64.16H31.56V62.56L36.78 61.84V67H16V55.84H13ZM38.3711 55.84V53H60.4711V58.06L55.2511 57.34V55.84H46.5711V59.56H55.2511V62.4H46.5711V67H41.3511V55.84H38.3711ZM63.0664 67V52.44L75.7664 56.18L88.4464 52.44V67H81.5264V64.16H83.2264V57.32L78.3664 58.7V67H73.1464V58.7L68.2864 57.32V64.16H69.9864V67H63.0664ZM90.4414 55.84V53H114.201V58.16L108.981 57.44V55.84H98.6414V64.16H108.981V62.56L114.201 61.84V67H93.4214V55.84H90.4414Z" fill="url(#paint0_linear)"/>
<path d="M51 71.6562C50.5365 71.6562 50.0833 71.7937 49.6979 72.0512C49.3125 72.3088 49.0121 72.6748 48.8347 73.1031C48.6573 73.5314 48.6109 74.0026 48.7013 74.4572C48.7917 74.9119 49.0149 75.3295 49.3427 75.6573C49.6705 75.9851 50.0881 76.2083 50.5428 76.2987C50.9974 76.3891 51.4687 76.3427 51.8969 76.1653C52.3252 75.9879 52.6912 75.6875 52.9488 75.3021C53.2063 74.9167 53.3438 74.4635 53.3438 74C53.3431 73.3786 53.0959 72.7829 52.6565 72.3435C52.2171 71.9041 51.6214 71.657 51 71.6562V71.6562ZM51 76.1562C50.5735 76.1562 50.1566 76.0298 49.8021 75.7929C49.4475 75.5559 49.1711 75.2192 49.0079 74.8252C48.8447 74.4312 48.802 73.9976 48.8852 73.5793C48.9684 73.1611 49.1737 72.7769 49.4753 72.4753C49.7769 72.1737 50.1611 71.9684 50.5793 71.8852C50.9976 71.802 51.4312 71.8447 51.8252 72.0079C52.2192 72.1711 52.5559 72.4475 52.7929 72.8021C53.0298 73.1566 53.1563 73.5735 53.1563 74C53.1556 74.5717 52.9282 75.1198 52.524 75.524C52.1198 75.9282 51.5717 76.1556 51 76.1562V76.1562ZM50.1563 73.9999C50.1563 74.177 50.2121 74.3496 50.3156 74.4932C50.4191 74.6369 50.5652 74.7443 50.7332 74.8003C50.9012 74.8563 51.0826 74.8581 51.2516 74.8053C51.4207 74.7525 51.5688 74.6479 51.6751 74.5062C51.6901 74.4865 51.7123 74.4736 51.7368 74.4702C51.7613 74.4668 51.7862 74.4732 51.8059 74.4881C51.8257 74.503 51.8388 74.5251 51.8424 74.5496C51.846 74.574 51.8397 74.599 51.825 74.6188C51.6951 74.7919 51.514 74.9198 51.3074 74.9843C51.1008 75.0488 50.8792 75.0466 50.6739 74.9782C50.4686 74.9097 50.29 74.7784 50.1635 74.6028C50.037 74.4272 49.9689 74.2163 49.9689 73.9999C49.9689 73.7835 50.037 73.5725 50.1635 73.3969C50.29 73.2214 50.4686 73.0901 50.6739 73.0216C50.8792 72.9531 51.1008 72.951 51.3074 73.0155C51.514 73.08 51.6951 73.2078 51.825 73.3809C51.8399 73.4008 51.8463 73.4258 51.8429 73.4504C51.8394 73.475 51.8262 73.4972 51.8064 73.5122C51.7865 73.5271 51.7615 73.5336 51.7369 73.5301C51.7122 73.5266 51.69 73.5134 51.6751 73.4936C51.5688 73.3519 51.4207 73.2473 51.2516 73.1945C51.0826 73.1417 50.9012 73.1435 50.7333 73.1995C50.5653 73.2555 50.4191 73.3629 50.3156 73.5066C50.2121 73.6502 50.1563 73.8228 50.1563 73.9999V73.9999Z" fill="#9D51FD"/>
<defs>
<linearGradient id="paint0_linear" x1="64" y1="62.8" x2="64" y2="50.8" gradientUnits="userSpaceOnUse">
<stop stop-color="#9D51FD"/>
<stop offset="1" stop-color="#4B47FE"/>
</linearGradient>
</defs>
</svg>
