<svg height="512pt" viewBox="0 -20 512.0006 512" width="512pt" xmlns="http://www.w3.org/2000/svg"><path d="m76 150c2.628906 0 5.210938-1.070312 7.070312-2.929688 1.859376-1.859374 2.929688-4.441406 2.929688-7.070312s-1.070312-5.210938-2.929688-7.070312c-1.859374-1.859376-4.441406-2.929688-7.070312-2.929688s-5.210938 1.070312-7.070312 2.929688c-1.859376 1.859374-2.929688 4.441406-2.929688 7.070312s1.070312 5.210938 2.929688 7.070312c1.859374 1.859376 4.441406 2.929688 7.070312 2.929688zm0 0"/><path d="m495.660156 286.605469c-12.644531-9.324219-29.683594-10.410157-43.410156-2.761719l-6.25 3.480469v-257.324219c0-16.542969-13.460938-30-30-30h-320c-16.542969 0-30 13.457031-30 30v70c0 5.523438 4.476562 10 10 10s10-4.476562 10-10v-70c0-5.515625 4.484375-10 10-10h96v102.195312c0 4.046876 2.4375 7.691407 6.171875 9.238282 3.738281 1.550781 8.039063.695312 10.898437-2.164063l19.929688-19.929687 19.929688 19.925781c3.90625 3.90625 10.234374 3.90625 14.140624 0l19.929688-19.925781 19.929688 19.925781c1.914062 1.914063 4.46875 2.929687 7.074218 2.929687 1.285156 0 2.585938-.25 3.824219-.761718 3.734375-1.546875 6.171875-5.191406 6.171875-9.238282v-102.195312h96c5.515625 0 10 4.484375 10 10v268.464844l-61.460938 34.242187c-21.214843 11.820313-43.777343 20.375-67.304687 25.574219 7.035156-20.796875-2.339844-43.691406-22.496094-53.414062l-71.625-34.554688c-19.855469-9.578125-42.691406-12.464844-64.304687-8.125l-53.003906 10.640625c.128906-.640625.195312-1.296875.195312-1.972656v-90.855469c0-5.523438-4.476562-10-10-10s-10 4.476562-10 10v89.667969h-56c-5.523438 0-10 4.476562-10 10v182.332031c0 5.523438 4.476562 10 10 10h56c5.523438 0 10-4.476562 10-10v-4h124.199219c92.546875 0 181.671875-27.855469 257.75-80.554688l36.746093-25.453124c10.800782-7.484376 17.105469-19.308594 17.300782-32.445313.195312-13.136719-5.761719-25.144531-16.335938-32.941406zm-195.660156-188.550781-9.929688-9.929688c-3.90625-3.90625-10.234374-3.90625-14.140624 0l-19.929688 19.929688-19.929688-19.929688c-1.953124-1.953125-4.511718-2.929688-7.070312-2.929688s-5.117188.976563-7.070312 2.929688l-9.929688 9.929688v-78.054688h88zm-244 353.945312h-36v-162.332031h36zm427.308594-116.449219-36.746094 25.453125c-72.714844 50.371094-157.90625 76.996094-246.363281 76.996094h-124.199219v-142.808594l66.742188-13.394531c17.371093-3.488281 35.722656-1.167969 51.679687 6.53125l71.628906 34.554687c11.59375 5.59375 16.632813 19.210938 11.460938 31.007813-4.941407 11.28125-17.496094 16.90625-29.207031 13.078125l-78.90625-25.785156c-5.25-1.714844-10.898438 1.148437-12.613282 6.398437s1.148438 10.894531 6.398438 12.609375l78.910156 25.785156c4.554688 1.488282 9.175781 2.199219 13.722656 2.199219 8.027344 0 15.8125-2.21875 22.546875-6.289062 33.832031-4.4375 66.097657-15.101563 95.90625-31.707031l65.992188-36.765626c.4375-.207031.859375-.433593 1.257812-.699218l20.460938-11.402344c6.898437-3.839844 15.457031-3.296875 21.808593 1.390625 5.316407 3.917969 8.304688 9.949219 8.207032 16.546875-.097656 6.601562-3.265625 12.542969-8.6875 16.300781zm0 0"/><path d="m376.730469 208.128906c5.523437 0 10-4.480468 10-10 0-5.523437-4.476563-10-10-10h-84.792969c-5.523438 0-10 4.476563-10 10 0 5.519532 4.476562 10 10 10zm0 0"/><path d="m249.269531 236.792969c0 5.523437 4.476563 10 10 10h117.460938c5.523437 0 10-4.476563 10-10 0-5.523438-4.476563-10-10-10h-117.460938c-5.523437 0-10 4.476562-10 10zm0 0"/><path d="m226.339844 243.859375c1.859375-1.859375 2.929687-4.4375 2.929687-7.070313 0-2.628906-1.070312-5.207031-2.929687-7.070312-1.859375-1.859375-4.441406-2.929688-7.070313-2.929688-2.628906 0-5.210937 1.070313-7.070312 2.929688-1.859375 1.871094-2.929688 4.441406-2.929688 7.070312 0 2.632813 1.070313 5.210938 2.929688 7.070313 1.859375 1.871094 4.441406 2.929687 7.070312 2.929687 2.628907 0 5.210938-1.058593 7.070313-2.929687zm0 0"/></svg>