<svg id="Capa_1" enable-background="new 0 0 512.055 512.055" height="512" viewBox="0 0 512.055 512.055" width="512" xmlns="http://www.w3.org/2000/svg"><g id="XMLID_1570_"><path id="XMLID_1573_" d="m197.027 188.527c-55.14 0-100 44.859-100 100s44.86 100 100 100 100-44.859 100-100-44.86-100-100-100zm0 180c-44.112 0-80-35.888-80-80s35.888-80 80-80 80 35.888 80 80-35.887 80-80 80z"/><path id="XMLID_1574_" d="m197.027 230.027c-5.523 0-10 4.478-10 10v38.5h-7c-5.523 0-10 4.478-10 10s4.477 10 10 10h17c5.523 0 10-4.478 10-10v-48.5c0-5.522-4.477-10-10-10z"/><path id="XMLID_1575_" d="m402.989 363.583c9.356 0 16.968 6.493 16.968 14.475 0 5.522 4.477 10 10 10s10-4.478 10-10c0-15.778-11.429-29.104-26.968-33.183v-3.153c0-5.522-4.477-10-10-10s-10 4.478-10 10v3.153c-15.54 4.079-26.968 17.405-26.968 33.183 0 19.01 16.584 34.476 36.968 34.476 9.356 0 16.968 6.493 16.968 14.475s-7.612 14.476-16.968 14.476-16.968-6.494-16.968-14.476c0-5.522-4.477-10-10-10s-10 4.478-10 10c0 15.778 11.429 29.104 26.968 33.184v2.41c0 5.522 4.477 10 10 10s10-4.478 10-10v-2.41c15.54-4.079 26.968-17.406 26.968-33.184 0-19.01-16.584-34.475-36.968-34.475-9.356 0-16.968-6.494-16.968-14.476s7.611-14.475 16.968-14.475z"/><path id="XMLID_1578_" d="m403.027 294.055c-3.031 0-6.031.13-9 .374v-224.429c0-16.542-13.458-30-30-30h-56.063v-8c0-17.645-14.355-32-32-32s-32 14.355-32 32v8h-93.873v-8c0-17.645-14.355-32-32-32s-32 14.355-32 32v8h-56.064c-16.542 0-30 13.458-30 30v340.055c0 16.542 13.458 30 30 30h270.47c15.183 41.945 55.411 72 102.53 72 60.103 0 109-48.897 109-109s-48.897-109-109-109zm-139.063-262.055c0-6.617 5.383-12 12-12s12 5.383 12 12v46.5c0 6.617-5.383 12-12 12s-12-5.383-12-12zm-157.873 0c0-6.617 5.383-12 12-12s12 5.383 12 12v46.5c0 6.617-5.383 12-12 12s-12-5.383-12-12zm-76.064 28h56.063v18.5c0 17.645 14.355 32 32 32s32-14.355 32-32v-18.5h93.873v18.5c0 17.645 14.355 32 32 32s32-14.355 32-32v-18.5h56.063c5.514 0 10 4.486 10 10v67h-354v-67c.001-5.514 4.487-10 10.001-10zm0 360.055c-5.514 0-10-4.486-10-10v-253.055h354v140.978c-46.07 12.73-80 55.013-80 105.077 0 5.782.457 11.459 1.328 17zm373 72c-49.075 0-89-39.925-89-89s39.925-89 89-89 89 39.925 89 89-39.925 89-89 89z"/></g></svg>